<svg width="0" height="0" class="hidden">
  <symbol fill="none" xmlns="http://www.w3.org/2000/svg" viewBox="0 0 20 20" id="calendar">
    <path d="M15.8333 3.33333H4.16667C3.24619 3.33333 2.5 4.07952 2.5 4.99999V16.6667C2.5 17.5871 3.24619 18.3333 4.16667 18.3333H15.8333C16.7538 18.3333 17.5 17.5871 17.5 16.6667V4.99999C17.5 4.07952 16.7538 3.33333 15.8333 3.33333Z" stroke="#262626" stroke-width="1.8" stroke-linecap="round" stroke-linejoin="round"></path>
    <path d="M13.333 1.66667V5" stroke="#262626" stroke-width="1.8" stroke-linecap="round" stroke-linejoin="round"></path>
    <path d="M6.66699 1.66667V5" stroke="#262626" stroke-width="1.8" stroke-linecap="round" stroke-linejoin="round"></path>
    <path d="M2.5 8.33333H17.5" stroke="#262626" stroke-width="1.8" stroke-linecap="round" stroke-linejoin="round"></path>
  </symbol>
  <symbol fill="none" xmlns="http://www.w3.org/2000/svg" viewBox="0 0 22 22" id="check">
    <path d="M18.3337 6.41667L8.25042 16.5L3.66699 11.9167" stroke="#08AA83" stroke-width="1.5" stroke-linecap="round" stroke-linejoin="round"></path>
  </symbol>
  <symbol fill="none" xmlns="http://www.w3.org/2000/svg" viewBox="0 0 18 18" id="chevron-down">
    <path d="M4.5 6.75L9 11.25L13.5 6.75" stroke="#262626" stroke-width="2" stroke-linecap="round" stroke-linejoin="round"></path>
  </symbol>
  <symbol fill="none" xmlns="http://www.w3.org/2000/svg" viewBox="0 0 22 22" id="cross-small">
    <path d="M17.4163 4.58333L4.58301 17.4167M4.58305 4.58333L17.4163 17.4167" stroke="#EF2447" stroke-width="2" stroke-linecap="round" stroke-linejoin="round"></path>
  </symbol>
  <symbol fill="none" xmlns="http://www.w3.org/2000/svg" viewBox="0 0 22 22" id="eye">
    <g clip-path="url(#clip0_55848_2020)">
      <path d="M0.916016 11C0.916016 11 4.58268 3.66667 10.9993 3.66667C17.416 3.66667 21.0827 11 21.0827 11C21.0827 11 17.416 18.3333 10.9993 18.3333C4.58268 18.3333 0.916016 11 0.916016 11Z" stroke="#F6B83D" stroke-width="2" stroke-linecap="round" stroke-linejoin="round"></path>
      <path d="M11 13.75C12.5188 13.75 13.75 12.5188 13.75 11C13.75 9.48122 12.5188 8.25 11 8.25C9.48122 8.25 8.25 9.48122 8.25 11C8.25 12.5188 9.48122 13.75 11 13.75Z" stroke="#F6B83D" stroke-width="2" stroke-linecap="round" stroke-linejoin="round"></path>
    </g>
    <defs>
      <clipPath id="clip0_55848_2020">
        <rect width="22" height="22" fill="white"></rect>
      </clipPath>
    </defs>
  </symbol>
  <symbol fill="none" xmlns="http://www.w3.org/2000/svg" viewBox="0 0 22 22" id="eye-off (1)">
    <g clip-path="url(#clip0_55848_2014)">
      <path d="M16.4463 16.445C14.8793 17.6394 12.9713 18.3011 11.0013 18.3333C4.58464 18.3333 0.917969 11 0.917969 11C2.0582 8.87507 3.63968 7.01855 5.5563 5.555M9.0763 3.88666C9.70727 3.73897 10.3533 3.66514 11.0013 3.66666C17.418 3.66666 21.0846 11 21.0846 11C20.5282 12.041 19.8646 13.021 19.1046 13.9242M12.9446 12.9433C12.6929 13.2135 12.3893 13.4302 12.0519 13.5805C11.7146 13.7308 11.3505 13.8117 10.9812 13.8182C10.612 13.8247 10.2452 13.7568 9.90278 13.6184C9.56036 13.4801 9.2493 13.2743 8.98816 13.0131C8.72703 12.752 8.52116 12.4409 8.38285 12.0985C8.24454 11.7561 8.17662 11.3893 8.18313 11.0201C8.18965 10.6508 8.27047 10.2867 8.42077 9.94936C8.57108 9.61203 8.78778 9.30843 9.05797 9.05666" stroke="#F6B83D" stroke-width="2" stroke-linecap="round" stroke-linejoin="round"></path>
      <path d="M0.917969 0.916672L21.0846 21.0833" stroke="#F6B83D" stroke-width="2" stroke-linecap="round" stroke-linejoin="round"></path>
    </g>
    <defs>
      <clipPath id="clip0_55848_2014">
        <rect width="22" height="22" fill="white"></rect>
      </clipPath>
    </defs>
  </symbol>
  <symbol fill="none" xmlns="http://www.w3.org/2000/svg" viewBox="0 0 50 50" id="icon">
    <circle cx="25" cy="25" r="25" fill="#FFF4DF"></circle>
    <path d="M24.9999 28C21.8298 28 19.0106 29.5306 17.2158 31.906C16.8296 32.4172 16.6364 32.6728 16.6427 33.0183C16.6476 33.2852 16.8152 33.6219 17.0252 33.7867C17.297 34 17.6737 34 18.4271 34H31.5726C32.326 34 32.7027 34 32.9745 33.7867C33.1845 33.6219 33.3521 33.2852 33.357 33.0183C33.3633 32.6728 33.1701 32.4172 32.7839 31.906C30.9891 29.5306 28.1699 28 24.9999 28Z" fill="#F6B83D" stroke="#F6B83D" stroke-width="2" stroke-linecap="round" stroke-linejoin="round"></path>
    <path d="M25 25C27.4853 25 29.5 22.9853 29.5 20.5C29.5 18.0147 27.4853 16 25 16C22.5147 16 20.5 18.0147 20.5 20.5C20.5 22.9853 22.5147 25 25 25Z" fill="#F6B83D" stroke="#F6B83D" stroke-width="2" stroke-linecap="round" stroke-linejoin="round"></path>
  </symbol>
  <symbol fill="none" xmlns="http://www.w3.org/2000/svg" viewBox="0 0 18 18" id="search">
    <path d="M8.25 14.25C11.5637 14.25 14.25 11.5637 14.25 8.25C14.25 4.93629 11.5637 2.25 8.25 2.25C4.93629 2.25 2.25 4.93629 2.25 8.25C2.25 11.5637 4.93629 14.25 8.25 14.25Z" stroke="#262626" stroke-width="2" stroke-linecap="round" stroke-linejoin="round"></path>
    <path d="M15.7508 15.75L12.4883 12.4875" stroke="#262626" stroke-width="2" stroke-linecap="round" stroke-linejoin="round"></path>
  </symbol>
  <symbol fill="none" xmlns="http://www.w3.org/2000/svg" viewBox="0 0 16 15" id="Star 2">
    <path d="M6.20021 4.69703L8 1.28579L9.79979 4.69703C9.95896 4.9987 10.2491 5.20947 10.5851 5.26762L14.3856 5.92519L11.6975 8.69103C11.4598 8.93563 11.3489 9.27666 11.3975 9.61427L11.9465 13.4319L8.48537 11.7301C8.17929 11.5795 7.82071 11.5795 7.51463 11.7301L4.05348 13.4319L4.6025 9.61427C4.65105 9.27666 4.54024 8.93563 4.30252 8.69103L1.6144 5.92519L5.41486 5.26762C5.75095 5.20947 6.04104 4.9987 6.20021 4.69703Z" fill="#FFC531" stroke="#FFC531" stroke-width="1.2"></path>
  </symbol>
   <symbol fill="none" xmlns="http://www.w3.org/2000/svg" viewBox="0 0 398 398" id="Ellipse119">
    <path opacity="0.3" d="M1.66876 182.741C-1.75311 224.271 8.01509 265.822 29.5824 301.478C51.1498 337.133 83.4167 365.075 121.789 381.325C160.161 397.575 202.681 401.304 243.296 391.981C283.911 382.659 320.549 360.76 347.993 329.403C375.438 298.046 392.29 258.83 396.149 217.338C400.008 175.846 390.679 134.194 369.488 98.3135C348.298 62.4327 316.327 34.1522 278.129 17.4988C239.93 0.845467 197.451 -3.33165 156.74 5.56227" stroke="white" stroke-width="2"></path>
  </symbol>
  <symbol version="1.1" xmlns="http://www.w3.org/2000/svg" viewBox="0 0 1182 1024" id="heard_mobile">
    <g id="icomoon-ignore"></g>
    <path d="M590.418 158.861c-107.091-126.443-285.674-160.456-419.852-44.672s-153.069 309.369-47.698 446.307c67.49 87.71 240.336 250.355 355.887 355.961 38.4 35.1 57.599 52.649 80.597 59.683 19.77 6.049 42.361 6.049 62.131 0 22.997-7.034 42.197-24.584 80.597-59.683 115.553-105.606 288.396-268.251 355.886-355.961 105.37-136.938 88.789-331.741-47.695-446.307s-312.761-81.771-419.853 44.672z"></path>
  </symbol>
<symbol fill="none" xmlns="http://www.w3.org/2000/svg" viewBox="0 0 32 32" id="burger-menu">
    <path d="M4 16H28" stroke="white" stroke-width="3" stroke-linecap="round" stroke-linejoin="round"></path>
    <path d="M4 8H28" stroke="white" stroke-width="3" stroke-linecap="round" stroke-linejoin="round"></path>
    <path d="M4 24H28" stroke="white" stroke-width="3" stroke-linecap="round" stroke-linejoin="round"></path>
  </symbol>
  <symbol fill="none" xmlns="http://www.w3.org/2000/svg" viewBox="0 0 32 32" id="x_black">
    <path d="M24 8L8 24" stroke="#262626" stroke-width="3" stroke-linecap="round" stroke-linejoin="round"></path>
    <path d="M8 8L24 24" stroke="#262626" stroke-width="3" stroke-linecap="round" stroke-linejoin="round"></path>
  </symbol>

   <symbol version="1.1" xmlns="http://www.w3.org/2000/svg" viewBox="0 0 1024 1024" id="burger">
    <g id="icomoon-ignore"></g>
    <path fill="none" stroke-linejoin="round" stroke-linecap="round" stroke-miterlimit="4" stroke-width="96" stroke="" d="M128 512h768"></path>
    <path fill="none" stroke-linejoin="round" stroke-linecap="round" stroke-miterlimit="4" stroke-width="96" stroke="" d="M128 256h768"></path>
    <path fill="none" stroke-linejoin="round" stroke-linecap="round" stroke-miterlimit="4" stroke-width="96" stroke="" d="M128 768h768"></path>
  </symbol>
  <symbol version="1.1" xmlns="http://www.w3.org/2000/svg" viewBox="0 0 1024 1024" id="x">
    <g id="icomoon-ignore"></g>
    <path fill="none" stroke-linejoin="round" stroke-linecap="round" stroke-miterlimit="4" stroke-width="96" stroke="" d="M768 256l-512 512"></path>
    <path fill="none" stroke-linejoin="round" stroke-linecap="round" stroke-miterlimit="4" stroke-width="96" stroke="" d="M256 256l512 512"></path>
  </symbol>
  <symbol fill="none" xmlns="http://www.w3.org/2000/svg" viewBox="0 0 22 22" id="check">
    <path d="M18.3337 6.41667L8.25042 16.5L3.66699 11.9167" stroke="#08AA83" stroke-width="1.5" stroke-linecap="round" stroke-linejoin="round"></path>
  </symbol>
  <symbol fill="none" xmlns="http://www.w3.org/2000/svg" viewBox="0 0 22 22" id="cross-small">
    <path d="M17.4163 4.58333L4.58301 17.4167M4.58305 4.58333L17.4163 17.4167" stroke="#EF2447" stroke-width="2" stroke-linecap="round" stroke-linejoin="round"></path>
  </symbol>
  <symbol fill="none" xmlns="http://www.w3.org/2000/svg" viewBox="0 0 22 22" id="eye">
    <g clip-path="url(#clip0_55848_2020)">
      <path d="M0.916016 11C0.916016 11 4.58268 3.66667 10.9993 3.66667C17.416 3.66667 21.0827 11 21.0827 11C21.0827 11 17.416 18.3333 10.9993 18.3333C4.58268 18.3333 0.916016 11 0.916016 11Z" stroke="#F6B83D" stroke-width="2" stroke-linecap="round" stroke-linejoin="round"></path>
      <path d="M11 13.75C12.5188 13.75 13.75 12.5188 13.75 11C13.75 9.48122 12.5188 8.25 11 8.25C9.48122 8.25 8.25 9.48122 8.25 11C8.25 12.5188 9.48122 13.75 11 13.75Z" stroke="#F6B83D" stroke-width="2" stroke-linecap="round" stroke-linejoin="round"></path>
    </g>
    <defs>
      <clipPath id="clip0_55848_2020">
        <rect width="22" height="22" fill="white"></rect>
      </clipPath>
    </defs>
  </symbol>
  <symbol fill="none" xmlns="http://www.w3.org/2000/svg" viewBox="0 0 22 22" id="eye-off">
    <g clip-path="url(#clip0_55848_2014)">
      <path d="M16.4463 16.445C14.8793 17.6394 12.9713 18.3011 11.0013 18.3333C4.58464 18.3333 0.917969 11 0.917969 11C2.0582 8.87507 3.63968 7.01855 5.5563 5.555M9.0763 3.88666C9.70727 3.73897 10.3533 3.66514 11.0013 3.66666C17.418 3.66666 21.0846 11 21.0846 11C20.5282 12.041 19.8646 13.021 19.1046 13.9242M12.9446 12.9433C12.6929 13.2135 12.3893 13.4302 12.0519 13.5805C11.7146 13.7308 11.3505 13.8117 10.9812 13.8182C10.612 13.8247 10.2452 13.7568 9.90278 13.6184C9.56036 13.4801 9.2493 13.2743 8.98816 13.0131C8.72703 12.752 8.52116 12.4409 8.38285 12.0985C8.24454 11.7561 8.17662 11.3893 8.18313 11.0201C8.18965 10.6508 8.27047 10.2867 8.42077 9.94936C8.57108 9.61203 8.78778 9.30843 9.05797 9.05666" stroke="#F6B83D" stroke-width="2" stroke-linecap="round" stroke-linejoin="round"></path>
      <path d="M0.917969 0.916672L21.0846 21.0833" stroke="#F6B83D" stroke-width="2" stroke-linecap="round" stroke-linejoin="round"></path>
    </g>
    <defs>
      <clipPath id="clip0_55848_2014">
        <rect width="22" height="22" fill="white"></rect>
      </clipPath>
    </defs>
  </symbol>
  <symbol fill="none" xmlns="http://www.w3.org/2000/svg" viewBox="0 0 18 18" id="search">
    <path d="M8.25 14.25C11.5637 14.25 14.25 11.5637 14.25 8.25C14.25 4.93629 11.5637 2.25 8.25 2.25C4.93629 2.25 2.25 4.93629 2.25 8.25C2.25 11.5637 4.93629 14.25 8.25 14.25Z" stroke="#262626" stroke-width="2" stroke-linecap="round" stroke-linejoin="round"></path>
    <path d="M15.7508 15.75L12.4883 12.4875" stroke="#262626" stroke-width="2" stroke-linecap="round" stroke-linejoin="round"></path>
  </symbol>
  <symbol fill="none" xmlns="http://www.w3.org/2000/svg" viewBox="0 0 14 14" id="black-x">
    <path d="M12.25 1.75L1.75 12.25M1.75003 1.75L12.25 12.25" stroke="#262626" stroke-width="2" stroke-linecap="round" stroke-linejoin="round"></path>
  </symbol>
  <symbol fill="none" xmlns="http://www.w3.org/2000/svg" viewBox="0 0 7 12" id="Vector_black_right">
    <path d="M4.16711 6.59171C4.24522 6.51424 4.30721 6.42208 4.34952 6.32053C4.39183 6.21898 4.41361 6.11006 4.41361 6.00005C4.41361 5.89004 4.39183 5.78111 4.34952 5.67956C4.30721 5.57802 4.24522 5.48585 4.16711 5.40838L0.342108 1.59171C0.264001 1.51424 0.202005 1.42207 0.159698 1.32052C0.117391 1.21897 0.0956096 1.11005 0.0956096 1.00004C0.0956096 0.890031 0.117391 0.781109 0.159698 0.67956C0.202005 0.57801 0.264001 0.485843 0.342108 0.408373C0.498244 0.253164 0.709454 0.166046 0.929608 0.166046C1.14976 0.166046 1.36097 0.253164 1.51711 0.408373L5.34211 4.23338C5.81028 4.70213 6.07324 5.33754 6.07324 6.00005C6.07324 6.66255 5.81028 7.29796 5.34211 7.76671L1.51711 11.5917C1.36189 11.7457 1.15239 11.8325 0.933775 11.8334C0.824103 11.834 0.715384 11.813 0.613852 11.7715C0.512321 11.7301 0.419975 11.669 0.342108 11.5917C0.264001 11.5142 0.202005 11.4221 0.159698 11.3205C0.117391 11.219 0.0956096 11.1101 0.0956096 11.0001C0.0956096 10.89 0.117391 10.7811 0.159698 10.6796C0.202005 10.578 0.264001 10.4859 0.342108 10.4084L4.16711 6.59171Z" fill="#262626"></path>
  </symbol>
  <symbol version="1.1" xmlns="http://www.w3.org/2000/svg" viewBox="0 0 19 32" id="Vector_black_left">
    <path d="M7.544 14.422c-0.208 0.207-0.374 0.452-0.486 0.723s-0.171 0.561-0.171 0.855c0 0.293 0.058 0.584 0.171 0.855s0.278 0.517 0.486 0.723l10.2 10.178c0.208 0.207 0.374 0.452 0.486 0.723s0.171 0.561 0.171 0.855c0 0.293-0.058 0.584-0.171 0.855s-0.278 0.517-0.486 0.723c-0.416 0.414-0.98 0.646-1.567 0.646s-1.15-0.232-1.567-0.646l-10.2-10.2c-1.248-1.25-1.95-2.944-1.95-4.711s0.701-3.461 1.95-4.711l10.2-10.2c0.414-0.411 0.973-0.642 1.556-0.645 0.292-0.002 0.582 0.054 0.853 0.165s0.517 0.273 0.725 0.479c0.208 0.207 0.374 0.452 0.486 0.723s0.171 0.561 0.171 0.854c0 0.294-0.058 0.584-0.171 0.855s-0.278 0.517-0.486 0.723l-10.2 10.178z"></path>
  </symbol>
  <symbol fill="none" xmlns="http://www.w3.org/2000/svg" viewBox="0 0 18 18" id="edit">
    <g clip-path="url(#clip0_55824_9070)">
      <path d="M12.75 2.25C12.947 2.05301 13.1808 1.89676 13.4382 1.79015C13.6956 1.68355 13.9714 1.62868 14.25 1.62868C14.5286 1.62868 14.8044 1.68355 15.0618 1.79015C15.3192 1.89676 15.553 2.05301 15.75 2.25C15.947 2.44698 16.1032 2.68083 16.2098 2.9382C16.3164 3.19557 16.3713 3.47142 16.3713 3.75C16.3713 4.02857 16.3164 4.30442 16.2098 4.56179C16.1032 4.81916 15.947 5.05301 15.75 5.25L5.625 15.375L1.5 16.5L2.625 12.375L12.75 2.25Z" stroke="#F6B83D" stroke-width="1.5" stroke-linecap="round" stroke-linejoin="round"></path>
    </g>
    <defs>
      <clipPath id="clip0_55824_9070">
        <rect width="18" height="18" fill="white"></rect>
      </clipPath>
    </defs>
  </symbol>
  <symbol fill="none" xmlns="http://www.w3.org/2000/svg" viewBox="0 0 18 18" id="user">
    <path d="M9.00038 11.25C6.62282 11.25 4.50847 12.398 3.16237 14.1795C2.87265 14.5629 2.7278 14.7546 2.73253 15.0137C2.7362 15.2139 2.8619 15.4664 3.0194 15.59C3.22327 15.75 3.50578 15.75 4.0708 15.75H13.93C14.495 15.75 14.7775 15.75 14.9814 15.59C15.1389 15.4664 15.2646 15.2139 15.2682 15.0137C15.273 14.7546 15.1281 14.5629 14.8384 14.1795C13.4923 12.398 11.3779 11.25 9.00038 11.25Z" fill="white" stroke="white" stroke-width="2" stroke-linecap="round" stroke-linejoin="round"></path>
    <path d="M9 9C10.864 9 12.375 7.48896 12.375 5.625C12.375 3.76104 10.864 2.25 9 2.25C7.13604 2.25 5.625 3.76104 5.625 5.625C5.625 7.48896 7.13604 9 9 9Z" fill="white" stroke="white" stroke-width="2" stroke-linecap="round" stroke-linejoin="round"></path>
  </symbol>
   <symbol fill="none" xmlns="http://www.w3.org/2000/svg" viewBox="0 0 40 40" id="user-foto">
    <path d="M19.9991 25C14.7156 25 10.0171 27.5511 7.02576 31.5099C6.38194 32.362 6.06003 32.788 6.07056 33.3638C6.0787 33.8086 6.35803 34.3698 6.70804 34.6445C7.16108 35 7.78888 35 9.04449 35H30.9537C32.2093 35 32.8371 35 33.2902 34.6445C33.6402 34.3698 33.9195 33.8086 33.9276 33.3638C33.9382 32.788 33.6163 32.362 32.9724 31.5099C29.9811 27.5511 25.2826 25 19.9991 25Z" fill="#F6B83D" stroke="#F6B83D" stroke-width="2" stroke-linecap="round" stroke-linejoin="round"></path>
    <path d="M20 20C24.1421 20 27.5 16.6421 27.5 12.5C27.5 8.35786 24.1421 5 20 5C15.8579 5 12.5 8.35786 12.5 12.5C12.5 16.6421 15.8579 20 20 20Z" fill="#F6B83D" stroke="#F6B83D" stroke-width="2" stroke-linecap="round" stroke-linejoin="round"></path>
  </symbol>
  <symbol fill="none" xmlns="http://www.w3.org/2000/svg" viewBox="0 0 18 18" id="upload-cloud">
    <path d="M12 12L9 9L6 12" stroke="#F6B83D" stroke-width="1.3" stroke-linecap="round" stroke-linejoin="round"></path>
    <path d="M9 9V15.75" stroke="#F6B83D" stroke-width="1.3" stroke-linecap="round" stroke-linejoin="round"></path>
    <path d="M15.2926 13.7925C16.0241 13.3937 16.602 12.7626 16.935 11.999C17.268 11.2353 17.3372 10.3824 17.1317 9.575C16.9262 8.7676 16.4577 8.05162 15.8001 7.54007C15.1425 7.02852 14.3332 6.75054 13.5001 6.74999H12.5551C12.3281 5.87192 11.905 5.05674 11.3175 4.36573C10.7301 3.67473 9.99372 3.12588 9.16366 2.76044C8.3336 2.39501 7.4315 2.22251 6.52518 2.2559C5.61885 2.28929 4.73189 2.52771 3.93097 2.95324C3.13006 3.37876 2.43602 3.98031 1.90106 4.71267C1.36609 5.44503 1.00411 6.28914 0.842327 7.18153C0.680545 8.07393 0.723171 8.99138 0.967002 9.86493C1.21083 10.7385 1.64952 11.5454 2.25009 12.225" stroke="#F6B83D" stroke-width="1.3" stroke-linecap="round" stroke-linejoin="round"></path>
    <path d="M12 12L9 9L6 12" stroke="#F6B83D" stroke-width="1.3" stroke-linecap="round" stroke-linejoin="round"></path>
  </symbol>
</svg>



















